<svg width="32" height="32" viewBox="0 0 32 32" fill="none" xmlns="http://www.w3.org/2000/svg">
  <!-- Background circle -->
  <circle cx="16" cy="16" r="16" fill="#1e40af"/>
  
  <!-- Running figure -->
  <path d="M8 20c0-2 1-3.5 2.5-4.5s3-1.5 4.5-1.5 3 0.5 4.5 1.5S22 18 22 20s-1 3.5-2.5 4.5-3 1.5-4.5 1.5-3-0.5-4.5-1.5S8 22 8 20z" fill="#fbbf24"/>
  
  <!-- Speed lines -->
  <path d="M24 8l2 2-2 2" stroke="#fbbf24" stroke-width="1.5" stroke-linecap="round" stroke-linejoin="round"/>
  <path d="M26 12l2 2-2 2" stroke="#fbbf24" stroke-width="1.5" stroke-linecap="round" stroke-linejoin="round"/>
  <path d="M28 16l2 2-2 2" stroke="#fbbf24" stroke-width="1.5" stroke-linecap="round" stroke-linejoin="round"/>
  
  <!-- Finish line -->
  <rect x="6" y="6" width="2" height="20" fill="#fbbf24"/>
  <rect x="8" y="6" width="2" height="20" fill="#1e40af"/>
  <rect x="10" y="6" width="2" height="20" fill="#fbbf24"/>
  <rect x="12" y="6" width="2" height="20" fill="#1e40af"/>
</svg> 